<svg xmlns="http://www.w3.org/2000/svg" xmlns:xlink="http://www.w3.org/1999/xlink" width="300" zoomAndPan="magnify" viewBox="0 0 224.87999 225" height="300" preserveAspectRatio="xMidYMid meet" version="1.0"><defs><g/><clipPath id="063042c2bf"><path d="M 59.292969 81 L 107 81 L 107 122.628906 L 59.292969 122.628906 Z M 59.292969 81 " clip-rule="nonzero"/></clipPath><clipPath id="699847680c"><path d="M 111 44.667969 L 165.738281 44.667969 L 165.738281 122.628906 L 111 122.628906 Z M 111 44.667969 " clip-rule="nonzero"/></clipPath><clipPath id="bdb8585532"><path d="M 82 44.667969 L 136 44.667969 L 136 122.628906 L 82 122.628906 Z M 82 44.667969 " clip-rule="nonzero"/></clipPath></defs><g clip-path="url(#063042c2bf)"><path fill="#c07212" d="M 85.128906 107.101562 L 91.199219 96.570312 L 82.78125 81.976562 L 59.335938 122.628906 L 106.226562 122.628906 L 97.273438 107.101562 Z M 85.128906 107.101562 " fill-opacity="1" fill-rule="nonzero"/></g><g clip-path="url(#699847680c)"><path fill="#e1c7a6" d="M 148.089844 122.628906 L 165.691406 122.628906 L 120.722656 44.65625 L 111.921875 59.917969 L 139.292969 107.371094 Z M 148.089844 122.628906 " fill-opacity="1" fill-rule="nonzero"/></g><g clip-path="url(#bdb8585532)"><path fill="#e1c7a6" d="M 118.351562 122.628906 L 135.894531 122.628906 L 91.101562 44.964844 L 82.332031 60.171875 L 109.554688 107.371094 Z M 118.351562 122.628906 " fill-opacity="1" fill-rule="nonzero"/></g><g fill="#ffffff" fill-opacity="1"><g transform="translate(62.527181, 171.638061)"><g><path d="M 5.9375 -1.75 L 2.140625 -1.75 L 1.390625 0 L -0.046875 0 L 3.359375 -7.578125 L 4.75 -7.578125 L 8.171875 0 L 6.6875 0 Z M 5.46875 -2.859375 L 4.03125 -6.171875 L 2.625 -2.859375 Z M 5.46875 -2.859375 "/></g></g></g><g fill="#ffffff" fill-opacity="1"><g transform="translate(72.420365, 171.638061)"><g><path d="M 5.984375 0 L 4.421875 -2.21875 C 4.359375 -2.207031 4.265625 -2.203125 4.140625 -2.203125 L 2.421875 -2.203125 L 2.421875 0 L 1.015625 0 L 1.015625 -7.578125 L 4.140625 -7.578125 C 4.796875 -7.578125 5.363281 -7.46875 5.84375 -7.25 C 6.332031 -7.039062 6.707031 -6.734375 6.96875 -6.328125 C 7.226562 -5.921875 7.359375 -5.441406 7.359375 -4.890625 C 7.359375 -4.316406 7.21875 -3.820312 6.9375 -3.40625 C 6.664062 -3 6.269531 -2.691406 5.75 -2.484375 L 7.5 0 Z M 5.9375 -4.890625 C 5.9375 -5.367188 5.773438 -5.738281 5.453125 -6 C 5.140625 -6.257812 4.679688 -6.390625 4.078125 -6.390625 L 2.421875 -6.390625 L 2.421875 -3.375 L 4.078125 -3.375 C 4.679688 -3.375 5.140625 -3.503906 5.453125 -3.765625 C 5.773438 -4.023438 5.9375 -4.398438 5.9375 -4.890625 Z M 5.9375 -4.890625 "/></g></g></g><g fill="#ffffff" fill-opacity="1"><g transform="translate(82.118726, 171.638061)"><g><path d="M 9.015625 0.765625 C 8.765625 1.054688 8.472656 1.273438 8.140625 1.421875 C 7.804688 1.578125 7.4375 1.65625 7.03125 1.65625 C 6.519531 1.65625 6.046875 1.535156 5.609375 1.296875 C 5.171875 1.066406 4.675781 0.664062 4.125 0.09375 C 3.425781 0.03125 2.796875 -0.171875 2.234375 -0.515625 C 1.679688 -0.867188 1.25 -1.328125 0.9375 -1.890625 C 0.625 -2.460938 0.46875 -3.097656 0.46875 -3.796875 C 0.46875 -4.523438 0.644531 -5.1875 1 -5.78125 C 1.351562 -6.382812 1.84375 -6.851562 2.46875 -7.1875 C 3.09375 -7.519531 3.789062 -7.6875 4.5625 -7.6875 C 5.332031 -7.6875 6.023438 -7.519531 6.640625 -7.1875 C 7.265625 -6.851562 7.753906 -6.390625 8.109375 -5.796875 C 8.460938 -5.203125 8.640625 -4.535156 8.640625 -3.796875 C 8.640625 -3.191406 8.519531 -2.632812 8.28125 -2.125 C 8.039062 -1.613281 7.707031 -1.179688 7.28125 -0.828125 C 6.851562 -0.472656 6.359375 -0.210938 5.796875 -0.046875 C 6.015625 0.171875 6.222656 0.328125 6.421875 0.421875 C 6.617188 0.523438 6.835938 0.578125 7.078125 0.578125 C 7.566406 0.578125 8 0.378906 8.375 -0.015625 Z M 1.890625 -3.796875 C 1.890625 -3.285156 2.003906 -2.828125 2.234375 -2.421875 C 2.472656 -2.015625 2.789062 -1.695312 3.1875 -1.46875 C 3.59375 -1.238281 4.050781 -1.125 4.5625 -1.125 C 5.0625 -1.125 5.515625 -1.238281 5.921875 -1.46875 C 6.328125 -1.695312 6.644531 -2.015625 6.875 -2.421875 C 7.101562 -2.828125 7.21875 -3.285156 7.21875 -3.796875 C 7.21875 -4.296875 7.101562 -4.75 6.875 -5.15625 C 6.644531 -5.5625 6.328125 -5.878906 5.921875 -6.109375 C 5.515625 -6.335938 5.0625 -6.453125 4.5625 -6.453125 C 4.050781 -6.453125 3.59375 -6.335938 3.1875 -6.109375 C 2.789062 -5.878906 2.472656 -5.5625 2.234375 -5.15625 C 2.003906 -4.75 1.890625 -4.296875 1.890625 -3.796875 Z M 1.890625 -3.796875 "/></g></g></g><g fill="#ffffff" fill-opacity="1"><g transform="translate(93.018475, 171.638061)"><g><path d="M 4.28125 0.109375 C 3.226562 0.109375 2.410156 -0.179688 1.828125 -0.765625 C 1.242188 -1.359375 0.953125 -2.203125 0.953125 -3.296875 L 0.953125 -7.578125 L 2.359375 -7.578125 L 2.359375 -3.359375 C 2.359375 -1.867188 3 -1.125 4.28125 -1.125 C 5.5625 -1.125 6.203125 -1.867188 6.203125 -3.359375 L 6.203125 -7.578125 L 7.59375 -7.578125 L 7.59375 -3.296875 C 7.59375 -2.203125 7.300781 -1.359375 6.71875 -0.765625 C 6.132812 -0.179688 5.320312 0.109375 4.28125 0.109375 Z M 4.28125 0.109375 "/></g></g></g><g fill="#ffffff" fill-opacity="1"><g transform="translate(103.344586, 171.638061)"><g><path d="M 1.015625 -7.578125 L 2.421875 -7.578125 L 2.421875 0 L 1.015625 0 Z M 1.015625 -7.578125 "/></g></g></g><g fill="#ffffff" fill-opacity="1"><g transform="translate(108.583737, 171.638061)"><g><path d="M 2.5625 -6.390625 L 0.046875 -6.390625 L 0.046875 -7.578125 L 6.46875 -7.578125 L 6.46875 -6.390625 L 3.96875 -6.390625 L 3.96875 0 L 2.5625 0 Z M 2.5625 -6.390625 "/></g></g></g><g fill="#ffffff" fill-opacity="1"><g transform="translate(116.885886, 171.638061)"><g><path d="M 6.703125 -1.1875 L 6.703125 0 L 1.015625 0 L 1.015625 -7.578125 L 6.546875 -7.578125 L 6.546875 -6.40625 L 2.421875 -6.40625 L 2.421875 -4.421875 L 6.078125 -4.421875 L 6.078125 -3.265625 L 2.421875 -3.265625 L 2.421875 -1.1875 Z M 6.703125 -1.1875 "/></g></g></g><g fill="#ffffff" fill-opacity="1"><g transform="translate(125.924018, 171.638061)"><g><path d="M 2.5625 -6.390625 L 0.046875 -6.390625 L 0.046875 -7.578125 L 6.46875 -7.578125 L 6.46875 -6.390625 L 3.96875 -6.390625 L 3.96875 0 L 2.5625 0 Z M 2.5625 -6.390625 "/></g></g></g><g fill="#ffffff" fill-opacity="1"><g transform="translate(134.226168, 171.638061)"><g><path d="M 4.28125 0.109375 C 3.226562 0.109375 2.410156 -0.179688 1.828125 -0.765625 C 1.242188 -1.359375 0.953125 -2.203125 0.953125 -3.296875 L 0.953125 -7.578125 L 2.359375 -7.578125 L 2.359375 -3.359375 C 2.359375 -1.867188 3 -1.125 4.28125 -1.125 C 5.5625 -1.125 6.203125 -1.867188 6.203125 -3.359375 L 6.203125 -7.578125 L 7.59375 -7.578125 L 7.59375 -3.296875 C 7.59375 -2.203125 7.300781 -1.359375 6.71875 -0.765625 C 6.132812 -0.179688 5.320312 0.109375 4.28125 0.109375 Z M 4.28125 0.109375 "/></g></g></g><g fill="#ffffff" fill-opacity="1"><g transform="translate(144.552279, 171.638061)"><g><path d="M 5.984375 0 L 4.421875 -2.21875 C 4.359375 -2.207031 4.265625 -2.203125 4.140625 -2.203125 L 2.421875 -2.203125 L 2.421875 0 L 1.015625 0 L 1.015625 -7.578125 L 4.140625 -7.578125 C 4.796875 -7.578125 5.363281 -7.46875 5.84375 -7.25 C 6.332031 -7.039062 6.707031 -6.734375 6.96875 -6.328125 C 7.226562 -5.921875 7.359375 -5.441406 7.359375 -4.890625 C 7.359375 -4.316406 7.21875 -3.820312 6.9375 -3.40625 C 6.664062 -3 6.269531 -2.691406 5.75 -2.484375 L 7.5 0 Z M 5.9375 -4.890625 C 5.9375 -5.367188 5.773438 -5.738281 5.453125 -6 C 5.140625 -6.257812 4.679688 -6.390625 4.078125 -6.390625 L 2.421875 -6.390625 L 2.421875 -3.375 L 4.078125 -3.375 C 4.679688 -3.375 5.140625 -3.503906 5.453125 -3.765625 C 5.773438 -4.023438 5.9375 -4.398438 5.9375 -4.890625 Z M 5.9375 -4.890625 "/></g></g></g><g fill="#ffffff" fill-opacity="1"><g transform="translate(154.250645, 171.638061)"><g><path d="M 5.9375 -1.75 L 2.140625 -1.75 L 1.390625 0 L -0.046875 0 L 3.359375 -7.578125 L 4.75 -7.578125 L 8.171875 0 L 6.6875 0 Z M 5.46875 -2.859375 L 4.03125 -6.171875 L 2.625 -2.859375 Z M 5.46875 -2.859375 "/></g></g></g><g fill="#ffffff" fill-opacity="1"><g transform="translate(23.282013, 155.25697)"><g><path d="M 2.34375 -17.5 L 5.59375 -17.5 L 5.59375 -2.75 L 14.75 -2.75 L 14.75 0 L 2.34375 0 Z M 2.34375 -17.5 "/></g></g></g><g fill="#ffffff" fill-opacity="1"><g transform="translate(47.62238, 155.25697)"><g><path d="M 13.703125 -4.046875 L 4.953125 -4.046875 L 3.21875 0 L -0.125 0 L 7.75 -17.5 L 10.953125 -17.5 L 18.84375 0 L 15.453125 0 Z M 12.625 -6.59375 L 9.328125 -14.25 L 6.046875 -6.59375 Z M 12.625 -6.59375 "/></g></g></g><g fill="#ffffff" fill-opacity="1"><g transform="translate(75.710958, 155.25697)"><g><path d="M 17.90625 -17.5 L 17.90625 0 L 15.21875 0 L 5.578125 -11.84375 L 5.578125 0 L 2.34375 0 L 2.34375 -17.5 L 5.03125 -17.5 L 14.671875 -5.65625 L 14.671875 -17.5 Z M 17.90625 -17.5 "/></g></g></g><g fill="#ffffff" fill-opacity="1"><g transform="translate(105.323816, 155.25697)"><g><path d="M 2.34375 -17.5 L 10 -17.5 C 11.863281 -17.5 13.519531 -17.132812 14.96875 -16.40625 C 16.425781 -15.6875 17.550781 -14.660156 18.34375 -13.328125 C 19.144531 -12.003906 19.546875 -10.476562 19.546875 -8.75 C 19.546875 -7.019531 19.144531 -5.488281 18.34375 -4.15625 C 17.550781 -2.832031 16.425781 -1.804688 14.96875 -1.078125 C 13.519531 -0.359375 11.863281 0 10 0 L 2.34375 0 Z M 9.84375 -2.75 C 11.132812 -2.75 12.265625 -2.992188 13.234375 -3.484375 C 14.210938 -3.972656 14.960938 -4.671875 15.484375 -5.578125 C 16.015625 -6.492188 16.28125 -7.550781 16.28125 -8.75 C 16.28125 -9.945312 16.015625 -11 15.484375 -11.90625 C 14.960938 -12.820312 14.210938 -13.523438 13.234375 -14.015625 C 12.265625 -14.503906 11.132812 -14.75 9.84375 -14.75 L 5.59375 -14.75 L 5.59375 -2.75 Z M 9.84375 -2.75 "/></g></g></g><g fill="#ffffff" fill-opacity="1"><g transform="translate(135.336481, 155.25697)"><g><path d="M 2.34375 -17.5 L 5.59375 -17.5 L 5.59375 0 L 2.34375 0 Z M 2.34375 -17.5 "/></g></g></g><g fill="#ffffff" fill-opacity="1"><g transform="translate(152.68017, 155.25697)"><g><path d="M 17.90625 -17.5 L 17.90625 0 L 15.21875 0 L 5.578125 -11.84375 L 5.578125 0 L 2.34375 0 L 2.34375 -17.5 L 5.03125 -17.5 L 14.671875 -5.65625 L 14.671875 -17.5 Z M 17.90625 -17.5 "/></g></g></g><g fill="#ffffff" fill-opacity="1"><g transform="translate(182.293022, 155.25697)"><g><path d="M 14.296875 -8.953125 L 17.375 -8.953125 L 17.375 -1.96875 C 16.476562 -1.257812 15.425781 -0.710938 14.21875 -0.328125 C 13.019531 0.0546875 11.789062 0.25 10.53125 0.25 C 8.738281 0.25 7.125 -0.132812 5.6875 -0.90625 C 4.257812 -1.6875 3.132812 -2.757812 2.3125 -4.125 C 1.5 -5.488281 1.09375 -7.03125 1.09375 -8.75 C 1.09375 -10.46875 1.5 -12.007812 2.3125 -13.375 C 3.132812 -14.738281 4.265625 -15.804688 5.703125 -16.578125 C 7.148438 -17.359375 8.773438 -17.75 10.578125 -17.75 C 12.046875 -17.75 13.378906 -17.503906 14.578125 -17.015625 C 15.773438 -16.535156 16.78125 -15.832031 17.59375 -14.90625 L 15.546875 -12.90625 C 14.210938 -14.238281 12.601562 -14.90625 10.71875 -14.90625 C 9.488281 -14.90625 8.394531 -14.644531 7.4375 -14.125 C 6.476562 -13.601562 5.726562 -12.875 5.1875 -11.9375 C 4.644531 -11.007812 4.375 -9.945312 4.375 -8.75 C 4.375 -7.582031 4.644531 -6.53125 5.1875 -5.59375 C 5.726562 -4.664062 6.476562 -3.929688 7.4375 -3.390625 C 8.394531 -2.859375 9.484375 -2.59375 10.703125 -2.59375 C 12.066406 -2.59375 13.265625 -2.894531 14.296875 -3.5 Z M 14.296875 -8.953125 "/></g></g></g></svg>