<svg xmlns="http://www.w3.org/2000/svg" xmlns:xlink="http://www.w3.org/1999/xlink" width="40" zoomAndPan="magnify" viewBox="0 0 30 30.000001" height="40" preserveAspectRatio="xMidYMid meet" version="1.0"><defs><clipPath id="6452ca9899"><path d="M 7 4.832031 L 22.945312 4.832031 L 22.945312 24.425781 L 7 24.425781 Z M 7 4.832031 " clip-rule="nonzero"/></clipPath></defs><g clip-path="url(#6452ca9899)"><path fill="#303030" d="M 7.03125 14.722656 C 7.058594 15.347656 7.480469 15.882812 8 16.207031 C 12.09375 18.785156 16.183594 21.359375 20.273438 23.933594 C 20.746094 24.242188 21.347656 24.425781 21.90625 24.253906 C 22.589844 24.0625 22.945312 23.332031 22.917969 22.671875 C 22.925781 17.324219 22.921875 11.972656 22.925781 6.621094 C 22.933594 6.039062 22.6875 5.394531 22.125 5.125 C 21.546875 4.828125 20.84375 5.003906 20.324219 5.335938 C 16.226562 7.902344 12.132812 10.472656 8.042969 13.039062 C 7.457031 13.390625 6.976562 14.023438 7.03125 14.722656 Z M 7.03125 14.722656 " fill-opacity="1" fill-rule="nonzero"/></g></svg>