<svg xmlns="http://www.w3.org/2000/svg" xmlns:xlink="http://www.w3.org/1999/xlink" width="40" zoomAndPan="magnify" viewBox="0 0 30 30.000001" height="40" preserveAspectRatio="xMidYMid meet" version="1.0"><defs><clipPath id="d45977a568"><path d="M 7.046875 4.601562 L 23 4.601562 L 23 24.199219 L 7.046875 24.199219 Z M 7.046875 4.601562 " clip-rule="nonzero"/></clipPath></defs><g clip-path="url(#d45977a568)"><path fill="#303030" d="M 22.960938 14.308594 C 22.929688 13.683594 22.507812 13.148438 21.988281 12.820312 C 17.898438 10.246094 13.808594 7.667969 9.714844 5.097656 C 9.242188 4.789062 8.640625 4.601562 8.082031 4.777344 C 7.402344 4.96875 7.046875 5.695312 7.074219 6.355469 C 7.066406 11.707031 7.066406 17.058594 7.0625 22.410156 C 7.054688 22.992188 7.304688 23.636719 7.863281 23.90625 C 8.445312 24.199219 9.144531 24.023438 9.667969 23.695312 C 13.761719 21.128906 17.855469 18.558594 21.949219 15.992188 C 22.535156 15.640625 23.011719 15.007812 22.960938 14.308594 Z M 22.960938 14.308594 " fill-opacity="1" fill-rule="nonzero"/></g></svg>